<svg xmlns="http://www.w3.org/2000/svg" width="auto" height="30px" viewBox="0 0 31 31" fill="none">
<path d="M15.6233 5.89941C14.4613 5.89941 13.3107 6.13397 12.2371 6.58969C11.1636 7.04541 10.1881 7.71337 9.36645 8.55543C7.70703 10.256 6.77478 12.5626 6.77478 14.9676C6.77478 18.9758 9.31431 22.3763 12.8272 23.5824C13.2696 23.655 13.4112 23.3738 13.4112 23.129V21.5965C10.9601 22.1406 10.4381 20.3813 10.4381 20.3813C10.031 19.3294 9.45588 19.0483 9.45588 19.0483C8.65067 18.4861 9.51782 18.5042 9.51782 18.5042C10.4027 18.5677 10.8716 19.4382 10.8716 19.4382C11.6415 20.8166 12.9422 20.4085 13.4466 20.1909C13.5262 19.6015 13.7563 19.2025 14.004 18.9758C12.0397 18.7491 9.97795 17.9692 9.97795 14.5142C9.97795 13.5076 10.3142 12.7006 10.8893 12.0567C10.8009 11.83 10.4912 10.8869 10.9778 9.66272C10.9778 9.66272 11.7211 9.41788 13.4112 10.5877C14.1102 10.3882 14.8712 10.2884 15.6233 10.2884C16.3754 10.2884 17.1364 10.3882 17.8354 10.5877C19.5255 9.41788 20.2688 9.66272 20.2688 9.66272C20.7554 10.8869 20.4457 11.83 20.3573 12.0567C20.9324 12.7006 21.2687 13.5076 21.2687 14.5142C21.2687 17.9783 19.1981 18.74 17.2249 18.9667C17.5434 19.2478 17.8354 19.801 17.8354 20.6443V23.129C17.8354 23.3738 17.977 23.664 18.4283 23.5824C21.9411 22.3673 24.4718 18.9758 24.4718 14.9676C24.4718 13.7768 24.243 12.5976 23.7983 11.4974C23.3536 10.3972 22.7018 9.39749 21.8802 8.55543C21.0585 7.71337 20.083 7.04541 19.0095 6.58969C17.9359 6.13397 16.7853 5.89941 15.6233 5.89941Z" fill="currentcolor"/>
</svg>
