<svg xmlns="http://www.w3.org/2000/svg" width="auto" height="20px" viewBox="0 0 31 31" fill="none">
<path d="M16.1075 11.0791C18.4302 11.0791 20.3474 12.9963 20.3474 15.319C20.3474 17.6786 18.4302 19.559 16.1075 19.559C13.7479 19.559 11.8676 17.6786 11.8676 15.319C11.8676 12.9963 13.7479 11.0791 16.1075 11.0791ZM16.1075 18.0842C17.6191 18.0842 18.8358 16.8675 18.8358 15.319C18.8358 13.8074 17.6191 12.5907 16.1075 12.5907C14.559 12.5907 13.3423 13.8074 13.3423 15.319C13.3423 16.8675 14.5959 18.0842 16.1075 18.0842ZM21.4904 10.9317C21.4904 11.4847 21.0479 11.9271 20.4949 11.9271C19.9419 11.9271 19.4994 11.4847 19.4994 10.9317C19.4994 10.3786 19.9419 9.93619 20.4949 9.93619C21.0479 9.93619 21.4904 10.3786 21.4904 10.9317ZM24.2924 11.9271C24.3661 13.2913 24.3661 17.3837 24.2924 18.7478C24.2186 20.0751 23.9237 21.2181 22.9651 22.2135C22.0065 23.1721 20.8267 23.4671 19.4994 23.5408C18.1353 23.6145 14.0428 23.6145 12.6787 23.5408C11.3514 23.4671 10.2085 23.1721 9.21303 22.2135C8.25444 21.2181 7.95949 20.0751 7.88575 18.7478C7.81201 17.3837 7.81201 13.2913 7.88575 11.9271C7.95949 10.5998 8.25444 9.42003 9.21303 8.46144C10.2085 7.50285 11.3514 7.2079 12.6787 7.13416C14.0428 7.06042 18.1353 7.06042 19.4994 7.13416C20.8267 7.2079 22.0065 7.50285 22.9651 8.46144C23.9237 9.42003 24.2186 10.5998 24.2924 11.9271ZM22.5227 20.1857C22.9651 19.1165 22.8545 16.5357 22.8545 15.319C22.8545 14.1392 22.9651 11.5584 22.5227 10.4524C22.2277 9.75185 21.6747 9.16195 20.9742 8.90387C19.8681 8.46144 17.2873 8.57205 16.1075 8.57205C14.8908 8.57205 12.31 8.46144 11.2408 8.90387C10.5034 9.19882 9.9504 9.75185 9.65545 10.4524C9.21303 11.5584 9.32363 14.1392 9.32363 15.319C9.32363 16.5357 9.21303 19.1165 9.65545 20.1857C9.9504 20.9231 10.5034 21.4761 11.2408 21.7711C12.31 22.2135 14.8908 22.1029 16.1075 22.1029C17.2873 22.1029 19.8681 22.2135 20.9742 21.7711C21.6747 21.4761 22.2646 20.9231 22.5227 20.1857Z" fill="currentcolor"/>
</svg>